<svg width="30" height="30" viewBox="0 0 30 30" fill="none" xmlns="http://www.w3.org/2000/svg">
<path d="M27.4302 17.6693L23.7471 13.987C23.645 13.8863 23.5087 13.8296 23.3663 13.8296C23.2238 13.8296 23.087 13.8862 22.9859 13.987L22.3439 14.6294C22.1344 14.8397 22.1344 15.1799 22.3439 15.3901L25.0037 18.0496L22.3439 20.711C22.1344 20.9213 22.1337 21.2614 22.3439 21.4716L22.9859 22.1142C23.0871 22.215 23.2238 22.2716 23.3663 22.2716C23.5087 22.2716 23.645 22.215 23.7471 22.1142L27.4302 18.4299C27.5316 18.3291 27.5881 18.192 27.5881 18.0496C27.5881 17.9071 27.5316 17.77 27.4302 17.6693Z" fill="#333333"/>
<path d="M18.1819 10.6027L15.8911 11.4739L14.1835 9.20152V8.85547C14.1835 7.47661 13.0653 6.3584 11.6863 6.3584H10.6192C9.79209 6.3584 9.06336 6.76583 8.60876 7.38644L5.46891 8.97762C5.22598 9.10123 5.03022 9.30133 4.91186 9.54697L3.09208 13.3348C2.79584 13.9526 3.05618 14.6934 3.67365 14.9905C3.84581 15.0733 4.02934 15.113 4.20927 15.113C4.67152 15.113 5.11515 14.8538 5.32851 14.4095L6.96619 11.0005L8.12254 10.4147V17.8709L8.42064 21.5755L3.27128 24.359C2.47581 24.7892 2.17909 25.7824 2.60971 26.578C2.90486 27.126 3.46921 27.437 4.05031 27.437C4.31426 27.437 4.58068 27.3735 4.82777 27.2399L10.9467 23.932C11.5331 23.6152 11.8695 22.9742 11.796 22.3118L11.5187 19.8025L13.2939 22.9988V28.363C13.2939 29.2669 14.0278 30 14.9318 30C15.8358 30 16.569 29.267 16.569 28.363V22.5744C16.569 22.2963 16.4975 22.0225 16.3627 21.7794L14.1835 17.8708V13.3303L14.4684 13.7097C14.7079 14.0286 15.0777 14.2054 15.4596 14.2054C15.6082 14.2054 15.7572 14.1792 15.9008 14.1245L19.0633 12.9214C19.7039 12.6777 20.0257 11.9611 19.7813 11.3212C19.5385 10.6812 18.823 10.3571 18.1819 10.6027Z" fill="#333333"/>
<path d="M11.1531 5.80009C12.7541 5.80009 14.0527 4.50213 14.0527 2.90017C14.0527 1.29796 12.7541 0 11.1531 0C9.55057 0 8.25195 1.29796 8.25195 2.90023C8.25195 4.50219 9.55051 5.80009 11.1531 5.80009Z" fill="#333333"/>
</svg>
